<svg aria-hidden="true" style="position: absolute; width: 0; height: 0; overflow: hidden;" version="1.1" xmlns="http://www.w3.org/2000/svg" xmlns:xlink="http://www.w3.org/1999/xlink">
<defs>
<symbol id="icon-eye" viewBox="0 0 32 32">
<path d="M16 6c-8.837 0-16 10-16 10s7.163 10 16 10 16-10 16-10-7.163-10-16-10zM16 22c-3.313 0-6-2.687-6-6s2.687-6 6-6 6 2.687 6 6-2.687 6-6 6zM16 12c-2.209 0-4 1.791-4 4s1.791 4 4 4 4-1.791 4-4-1.791-4-4-4z"></path>
</symbol>
<symbol id="icon-close" viewBox="0 0 20 20">
<path d="M10 8.586l-7.071-7.071-1.414 1.414 7.071 7.071-7.071 7.071 1.414 1.414 7.071-7.071 7.071 7.071 1.414-1.414-7.071-7.071 7.071-7.071-1.414-1.414-7.071 7.071z"></path>
</symbol>
<symbol id="icon-sun" viewBox="0 0 32 32">
<path d="M16 26c1.105 0 2 0.895 2 2v2c0 1.105-0.895 2-2 2s-2-0.895-2-2v-2c0-1.105 0.895-2 2-2zM16 6c-1.105 0-2-0.895-2-2v-2c0-1.105 0.895-2 2-2s2 0.895 2 2v2c0 1.105-0.895 2-2 2zM30 14c1.105 0 2 0.895 2 2s-0.895 2-2 2h-2c-1.105 0-2-0.895-2-2s0.895-2 2-2h2zM6 16c0 1.105-0.895 2-2 2h-2c-1.105 0-2-0.895-2-2s0.895-2 2-2h2c1.105 0 2 0.895 2 2zM25.899 23.071l1.414 1.414c0.781 0.781 0.781 2.047 0 2.828s-2.047 0.781-2.828 0l-1.414-1.414c-0.781-0.781-0.781-2.047 0-2.828s2.047-0.781 2.828 0zM6.101 8.929l-1.414-1.414c-0.781-0.781-0.781-2.047 0-2.828s2.047-0.781 2.828 0l1.414 1.414c0.781 0.781 0.781 2.047 0 2.828s-2.047 0.781-2.828 0zM25.899 8.929c-0.781 0.781-2.047 0.781-2.828 0s-0.781-2.047 0-2.828l1.414-1.414c0.781-0.781 2.047-0.781 2.828 0s0.781 2.047 0 2.828l-1.414 1.414zM6.101 23.071c0.781-0.781 2.047-0.781 2.828 0s0.781 2.047 0 2.828l-1.414 1.414c-0.781 0.781-2.047 0.781-2.828 0s-0.781-2.047 0-2.828l1.414-1.414z"></path>
<path d="M16 8c-4.418 0-8 3.582-8 8s3.582 8 8 8c4.418 0 8-3.582 8-8s-3.582-8-8-8zM16 21c-2.761 0-5-2.239-5-5s2.239-5 5-5 5 2.239 5 5-2.239 5-5 5z"></path>
</symbol>
<symbol id="icon-star" viewBox="0 0 32 32">
<path d="M32 12.408l-11.056-1.607-4.944-10.018-4.944 10.018-11.056 1.607 8 7.798-1.889 11.011 9.889-5.199 9.889 5.199-1.889-11.011 8-7.798z"></path>
</symbol>
<symbol id="icon-now-playing" viewBox="0 0 32 32">
<path d="M21 6l-10-4-11 4v24l11-4 10 4 11-4v-24l-11 4zM12 4.554l8 3.2v19.692l-8-3.2v-19.692zM2 7.401l8-2.909v19.744l-8 2.909v-19.744zM30 24.599l-8 2.909v-19.744l8-2.909v19.744z"></path>
</symbol>
<symbol id="icon-popular" viewBox="0 0 32 32">
<path d="M10.031 32c-2.133-4.438-0.997-6.981 0.642-9.376 1.795-2.624 2.258-5.221 2.258-5.221s1.411 1.834 0.847 4.703c2.493-2.775 2.963-7.196 2.587-8.889 5.635 3.938 8.043 12.464 4.798 18.783 17.262-9.767 4.294-24.38 2.036-26.027 0.753 1.646 0.895 4.433-0.625 5.785-2.573-9.759-8.937-11.759-8.937-11.759 0.753 5.033-2.728 10.536-6.084 14.648-0.118-2.007-0.243-3.392-1.298-5.312-0.237 3.646-3.023 6.617-3.777 10.27-1.022 4.946 0.765 8.568 7.555 12.394z"></path>
</symbol>
<symbol id="icon-home" viewBox="0 0 32 32">
<path d="M12 18h-10c-1.105 0-2 0.895-2 2v10c0 1.105 0.894 2 2 2h10c1.105 0 2-0.895 2-2v-10c0-1.105-0.895-2-2-2zM10 28h-6v-6h6v6zM12 0h-10c-1.105 0-2 0.894-2 2v10c0 1.105 0.894 2 2 2h10c1.105 0 2-0.895 2-2v-10c0-1.105-0.895-2-2-2zM10 10h-6v-6h6v6zM30 18h-10c-1.105 0-2 0.895-2 2v10c0 1.105 0.895 2 2 2h10c1.105 0 2-0.895 2-2v-10c0-1.105-0.895-2-2-2zM28 28h-6v-6h6v6zM30 0h-10c-1.105 0-2 0.894-2 2v10c0 1.105 0.895 2 2 2h10c1.105 0 2-0.895 2-2v-10c0-1.105-0.895-2-2-2zM28 10h-6v-6h6v6z"></path>
</symbol>
<symbol id="icon-heart" viewBox="0 0 28 28">
<path d="M26 9.312c0-4.391-2.969-5.313-5.469-5.313-2.328 0-4.953 2.516-5.766 3.484-0.375 0.453-1.156 0.453-1.531 0-0.812-0.969-3.437-3.484-5.766-3.484-2.5 0-5.469 0.922-5.469 5.313 0 2.859 2.891 5.516 2.922 5.547l9.078 8.75 9.063-8.734c0.047-0.047 2.938-2.703 2.938-5.563zM28 9.312c0 3.75-3.437 6.891-3.578 7.031l-9.734 9.375c-0.187 0.187-0.438 0.281-0.688 0.281s-0.5-0.094-0.688-0.281l-9.75-9.406c-0.125-0.109-3.563-3.25-3.563-7 0-4.578 2.797-7.313 7.469-7.313 2.734 0 5.297 2.156 6.531 3.375 1.234-1.219 3.797-3.375 6.531-3.375 4.672 0 7.469 2.734 7.469 7.313z"></path>
</symbol>
<symbol id="icon-heart-fill" viewBox="0 0 28 28">
<path d="M14 26c-0.25 0-0.5-0.094-0.688-0.281l-9.75-9.406c-0.125-0.109-3.563-3.25-3.563-7 0-4.578 2.797-7.313 7.469-7.313 2.734 0 5.297 2.156 6.531 3.375 1.234-1.219 3.797-3.375 6.531-3.375 4.672 0 7.469 2.734 7.469 7.313 0 3.75-3.437 6.891-3.578 7.031l-9.734 9.375c-0.187 0.187-0.438 0.281-0.688 0.281z"></path>
</symbol>
<symbol id="icon-moon" viewBox="0 0 32 32">
<path d="M10.895 7.574c0 7.55 5.179 13.67 11.567 13.67 1.588 0 3.101-0.38 4.479-1.063-1.695 4.46-5.996 7.636-11.051 7.636-6.533 0-11.83-5.297-11.83-11.83 0-4.82 2.888-8.959 7.023-10.803-0.116 0.778-0.188 1.573-0.188 2.39z"></path>
</symbol>
<symbol id="icon-upcoming" viewBox="0 0 32 32">
<path d="M11.927 0.494c5.943-1.664 13.381 1.008 16.838 6.050 2.746 4.004 2.932 4.954 3.091 15.719l0.144 9.738h-3.264v-6.395l-1.814 1.769c-9.177 8.949-24.306 3.873-26.683-8.952-1.438-7.758 3.742-15.703 11.687-17.928zM11.14 3.972c-8.431 3.247-10.709 14.539-4.242 21.027 8.050 8.077 21.838 2.357 21.838-9.061 0-9.047-9.102-15.237-17.596-11.966zM14.456 5.172c1.156-0.561 1.644-0.565 2.827-0.024 3.509 1.604 1.043 7.065-2.521 5.584-2.323-0.965-2.517-4.488-0.306-5.56zM6.452 13.203c1.156-0.561 1.644-0.565 2.827-0.024 3.509 1.604 1.043 7.065-2.521 5.584-2.323-0.965-2.517-4.488-0.306-5.56zM22.461 13.203c1.156-0.561 1.644-0.565 2.827-0.024 3.509 1.604 1.043 7.065-2.521 5.584-2.323-0.965-2.517-4.488-0.306-5.56zM14.957 14.962c0.346-0.347 0.784-0.631 0.972-0.631 0.445 0 1.601 1.16 1.601 1.606s-1.156 1.606-1.601 1.606-1.601-1.16-1.601-1.606c0-0.189 0.283-0.628 0.629-0.975zM14.456 21.234c1.156-0.561 1.644-0.565 2.827-0.024 3.509 1.604 1.043 7.065-2.521 5.584-2.323-0.965-2.517-4.488-0.306-5.56z"></path>
</symbol>
<symbol id="icon-github" viewBox="0 0 32 32">
<path d="M16 0.395c-8.836 0-16 7.163-16 16 0 7.069 4.585 13.067 10.942 15.182 0.8 0.148 1.094-0.347 1.094-0.77 0-0.381-0.015-1.642-0.022-2.979-4.452 0.968-5.391-1.888-5.391-1.888-0.728-1.849-1.776-2.341-1.776-2.341-1.452-0.993 0.11-0.973 0.11-0.973 1.606 0.113 2.452 1.649 2.452 1.649 1.427 2.446 3.743 1.739 4.656 1.33 0.143-1.034 0.558-1.74 1.016-2.14-3.554-0.404-7.29-1.777-7.29-7.907 0-1.747 0.625-3.174 1.649-4.295-0.166-0.403-0.714-2.030 0.155-4.234 0 0 1.344-0.43 4.401 1.64 1.276-0.355 2.645-0.532 4.005-0.539 1.359 0.006 2.729 0.184 4.008 0.539 3.054-2.070 4.395-1.64 4.395-1.64 0.871 2.204 0.323 3.831 0.157 4.234 1.026 1.12 1.647 2.548 1.647 4.295 0 6.145-3.743 7.498-7.306 7.895 0.574 0.497 1.085 1.47 1.085 2.963 0 2.141-0.019 3.864-0.019 4.391 0 0.426 0.288 0.925 1.099 0.768 6.354-2.118 10.933-8.113 10.933-15.18 0-8.837-7.164-16-16-16z"></path>
</symbol>
<symbol id="icon-instagram" viewBox="0 0 32 32">
<path d="M16 2.881c4.275 0 4.781 0.019 6.462 0.094 1.563 0.069 2.406 0.331 2.969 0.55 0.744 0.288 1.281 0.638 1.837 1.194 0.563 0.563 0.906 1.094 1.2 1.838 0.219 0.563 0.481 1.412 0.55 2.969 0.075 1.688 0.094 2.194 0.094 6.463s-0.019 4.781-0.094 6.463c-0.069 1.563-0.331 2.406-0.55 2.969-0.288 0.744-0.637 1.281-1.194 1.837-0.563 0.563-1.094 0.906-1.837 1.2-0.563 0.219-1.413 0.481-2.969 0.55-1.688 0.075-2.194 0.094-6.463 0.094s-4.781-0.019-6.463-0.094c-1.563-0.069-2.406-0.331-2.969-0.55-0.744-0.288-1.281-0.637-1.838-1.194-0.563-0.563-0.906-1.094-1.2-1.837-0.219-0.563-0.481-1.413-0.55-2.969-0.075-1.688-0.094-2.194-0.094-6.463s0.019-4.781 0.094-6.463c0.069-1.563 0.331-2.406 0.55-2.969 0.288-0.744 0.638-1.281 1.194-1.838 0.563-0.563 1.094-0.906 1.838-1.2 0.563-0.219 1.412-0.481 2.969-0.55 1.681-0.075 2.188-0.094 6.463-0.094zM16 0c-4.344 0-4.887 0.019-6.594 0.094-1.7 0.075-2.869 0.35-3.881 0.744-1.056 0.412-1.95 0.956-2.837 1.85-0.894 0.888-1.438 1.781-1.85 2.831-0.394 1.019-0.669 2.181-0.744 3.881-0.075 1.713-0.094 2.256-0.094 6.6s0.019 4.887 0.094 6.594c0.075 1.7 0.35 2.869 0.744 3.881 0.413 1.056 0.956 1.95 1.85 2.837 0.887 0.887 1.781 1.438 2.831 1.844 1.019 0.394 2.181 0.669 3.881 0.744 1.706 0.075 2.25 0.094 6.594 0.094s4.888-0.019 6.594-0.094c1.7-0.075 2.869-0.35 3.881-0.744 1.050-0.406 1.944-0.956 2.831-1.844s1.438-1.781 1.844-2.831c0.394-1.019 0.669-2.181 0.744-3.881 0.075-1.706 0.094-2.25 0.094-6.594s-0.019-4.887-0.094-6.594c-0.075-1.7-0.35-2.869-0.744-3.881-0.394-1.063-0.938-1.956-1.831-2.844-0.887-0.887-1.781-1.438-2.831-1.844-1.019-0.394-2.181-0.669-3.881-0.744-1.712-0.081-2.256-0.1-6.6-0.1v0z"></path>
<path d="M16 7.781c-4.537 0-8.219 3.681-8.219 8.219s3.681 8.219 8.219 8.219 8.219-3.681 8.219-8.219c0-4.537-3.681-8.219-8.219-8.219zM16 21.331c-2.944 0-5.331-2.387-5.331-5.331s2.387-5.331 5.331-5.331c2.944 0 5.331 2.387 5.331 5.331s-2.387 5.331-5.331 5.331z"></path>
<path d="M26.462 7.456c0 1.060-0.859 1.919-1.919 1.919s-1.919-0.859-1.919-1.919c0-1.060 0.859-1.919 1.919-1.919s1.919 0.859 1.919 1.919z"></path>
</symbol>
<symbol id="icon-empty" viewBox="0 0 32 32">
<path d="M1.069 1.5c-0.356 0.087-0.713 0.375-0.894 0.744l-0.175 0.344v7.287h0.938v-1.875h30.125v18.419l-0.131 0.169c-0.125 0.163-0.137 0.163-0.938 0.163h-0.806v0.938h1.788l0.337-0.206c0.262-0.156 0.381-0.275 0.512-0.538l0.175-0.331v-22.15l-0.169-0.344c-0.194-0.375-0.538-0.656-0.931-0.744-0.137-0.038-2.994-0.063-6.575-0.063h-6.331l-2.85-1.875-6.931 0.006c-3.813 0.006-7.025 0.031-7.144 0.056zM16.281 3.313l1.406 0.938h6.469c6.881 0 6.756-0.006 6.869 0.281 0.019 0.056 0.038 0.65 0.038 1.319v1.213h-30.125v-2.175c0-2.281 0-2.288 0.281-2.438 0.087-0.050 2.112-0.069 6.894-0.075h6.762l1.406 0.938z"></path>
<path d="M2.944 3.375c-0.362 0.087-0.712 0.381-0.894 0.744-0.231 0.456-0.231 0.819 0 1.263 0.519 1 1.944 1 2.462 0 0.375-0.719 0.094-1.538-0.669-1.931-0.188-0.094-0.663-0.138-0.9-0.075zM3.494 4.344c0.288 0.144 0.337 0.412 0.125 0.681-0.256 0.325-0.806 0.119-0.806-0.3 0-0.162 0.1-0.306 0.281-0.4 0.163-0.094 0.194-0.094 0.4 0.019z"></path>
<path d="M6.694 3.375c-0.575 0.138-1.069 0.781-1.069 1.381 0 0.456 0.269 0.912 0.688 1.162 1.188 0.719 2.563-0.513 1.975-1.769-0.137-0.294-0.375-0.538-0.694-0.7-0.188-0.094-0.662-0.138-0.9-0.075zM7.244 4.344c0.287 0.144 0.338 0.412 0.125 0.681-0.256 0.325-0.806 0.119-0.806-0.3 0-0.162 0.1-0.306 0.281-0.4 0.162-0.094 0.194-0.094 0.4 0.019z"></path>
<path d="M10.444 3.375c-0.575 0.138-1.069 0.781-1.069 1.381 0 0.456 0.269 0.912 0.688 1.162 1.188 0.719 2.563-0.513 1.975-1.769-0.137-0.294-0.375-0.538-0.694-0.7-0.188-0.094-0.662-0.138-0.9-0.075zM10.994 4.344c0.287 0.144 0.338 0.412 0.125 0.681-0.256 0.325-0.806 0.119-0.806-0.3 0-0.162 0.1-0.306 0.281-0.4 0.162-0.094 0.194-0.094 0.4 0.019z"></path>
<path d="M27.313 5.656v0.469h0.938v-0.938h-0.938v0.469z"></path>
<path d="M29.188 5.656v0.469h0.938v-0.938h-0.938v0.469z"></path>
<path d="M15.156 9.944c-2.713 0.331-5.012 2.063-6.069 4.563-0.825 1.956-0.756 4.237 0.181 6.169l0.25 0.525-5.55 5.55h-2.775l-0.125-0.163c-0.131-0.169-0.131-0.169-0.131-7.969v-7.806h-0.938v15.8l0.175 0.331c0.131 0.262 0.25 0.381 0.512 0.538l0.337 0.206h1.019c0.563 0 1.019 0.019 1.019 0.038s-0.044 0.175-0.1 0.344c-0.15 0.456-0.094 1.069 0.138 1.494 0.331 0.613 0.919 0.95 1.65 0.956 0.694 0.006 0.862-0.106 2.313-1.556l1.288-1.275h18.025v-0.938h-17.094l2.894-2.894 0.431 0.219c1.706 0.894 3.906 1.050 5.8 0.419 1.85-0.619 3.525-2.113 4.369-3.9 0.881-1.85 0.95-3.981 0.194-5.938-0.738-1.919-2.325-3.5-4.269-4.25-1.050-0.406-2.481-0.594-3.544-0.463zM16.669 10.881c2.744 0.306 4.975 2.225 5.688 4.9 0.15 0.556 0.169 0.738 0.163 1.625 0 0.875-0.019 1.075-0.163 1.6-0.631 2.387-2.381 4.106-4.856 4.788-0.644 0.175-2.412 0.156-3.125-0.031-0.669-0.181-1.781-0.719-2.313-1.125-2.581-1.962-3.363-5.462-1.85-8.3 0.956-1.8 2.769-3.113 4.675-3.394 0.25-0.037 0.525-0.081 0.613-0.094 0.306-0.044 0.575-0.037 1.169 0.031zM8.363 26.363c-1.662 1.663-3.1 3.063-3.206 3.119-0.431 0.231-1.044 0.044-1.244-0.381-0.119-0.244-0.131-0.613-0.031-0.806 0.038-0.075 1.444-1.519 3.131-3.206l3.056-3.063 1.313 1.313-3.019 3.025z"></path>
<path d="M13.5 14.906l-1.156 1.156 1.344 1.344-1.313 1.313 2.313 2.313 1.313-1.313 1.313 1.313 2.313-2.313-1.313-1.313 0.669-0.675 0.675-0.669-2.313-2.313-1.344 1.344-1.344-1.344-1.156 1.156zM15.356 15.762l0.644 0.644 1.313-1.313 1 1-1.313 1.313 1.313 1.313-1 1-1.313-1.313-1.313 1.313-1-1 1.313-1.313-1.313-1.313 0.481-0.481c0.269-0.269 0.5-0.488 0.519-0.488 0.012 0 0.319 0.287 0.669 0.637z"></path>
<path d="M27.313 27.219v0.469h0.938v-0.938h-0.938v0.469z"></path>
</symbol>
<symbol id="icon-spinner" viewBox="0 0 32 32">
<path d="M12 4c0-2.209 1.791-4 4-4s4 1.791 4 4c0 2.209-1.791 4-4 4s-4-1.791-4-4zM24.719 16c0 0 0 0 0 0 0-1.812 1.469-3.281 3.281-3.281s3.281 1.469 3.281 3.281c0 0 0 0 0 0 0 1.812-1.469 3.281-3.281 3.281s-3.281-1.469-3.281-3.281zM21.513 24.485c0-1.641 1.331-2.972 2.972-2.972s2.972 1.331 2.972 2.972c0 1.641-1.331 2.972-2.972 2.972s-2.972-1.331-2.972-2.972zM13.308 28c0-1.487 1.205-2.692 2.692-2.692s2.692 1.205 2.692 2.692c0 1.487-1.205 2.692-2.692 2.692s-2.692-1.205-2.692-2.692zM5.077 24.485c0-1.346 1.092-2.438 2.438-2.438s2.438 1.092 2.438 2.438c0 1.346-1.092 2.438-2.438 2.438s-2.438-1.092-2.438-2.438zM1.792 16c0-1.22 0.989-2.208 2.208-2.208s2.208 0.989 2.208 2.208c0 1.22-0.989 2.208-2.208 2.208s-2.208-0.989-2.208-2.208zM5.515 7.515c0 0 0 0 0 0 0-1.105 0.895-2 2-2s2 0.895 2 2c0 0 0 0 0 0 0 1.105-0.895 2-2 2s-2-0.895-2-2zM28.108 7.515c0 2.001-1.622 3.623-3.623 3.623s-3.623-1.622-3.623-3.623c0-2.001 1.622-3.623 3.623-3.623s3.623 1.622 3.623 3.623z"></path>
</symbol>
<symbol id="icon-twitter" viewBox="0 0 32 32">
<path d="M32 7.075c-1.175 0.525-2.444 0.875-3.769 1.031 1.356-0.813 2.394-2.1 2.887-3.631-1.269 0.75-2.675 1.3-4.169 1.594-1.2-1.275-2.906-2.069-4.794-2.069-3.625 0-6.563 2.938-6.563 6.563 0 0.512 0.056 1.012 0.169 1.494-5.456-0.275-10.294-2.888-13.531-6.862-0.563 0.969-0.887 2.1-0.887 3.3 0 2.275 1.156 4.287 2.919 5.463-1.075-0.031-2.087-0.331-2.975-0.819 0 0.025 0 0.056 0 0.081 0 3.181 2.263 5.838 5.269 6.437-0.55 0.15-1.131 0.231-1.731 0.231-0.425 0-0.831-0.044-1.237-0.119 0.838 2.606 3.263 4.506 6.131 4.563-2.25 1.762-5.075 2.813-8.156 2.813-0.531 0-1.050-0.031-1.569-0.094 2.913 1.869 6.362 2.95 10.069 2.95 12.075 0 18.681-10.006 18.681-18.681 0-0.287-0.006-0.569-0.019-0.85 1.281-0.919 2.394-2.075 3.275-3.394z"></path>
</symbol>
<symbol id="icon-search" viewBox="0 0 32 32">
<path d="M20 0.005c-6.627 0-12 5.373-12 12 0 2.026 0.507 3.933 1.395 5.608l-8.344 8.342 0.007 0.006c-0.652 0.641-1.058 1.529-1.058 2.516 0 1.949 1.58 3.529 3.529 3.529 0.985 0 1.874-0.406 2.515-1.059l-0.002-0.002 8.341-8.34c1.676 0.891 3.586 1.4 5.617 1.4 6.627 0 12-5.373 12-12s-5.373-12-12-12zM4.795 29.697c-0.322 0.334-0.768 0.543-1.266 0.543-0.975 0-1.765-0.789-1.765-1.764 0-0.498 0.21-0.943 0.543-1.266l-0.009-0.008 8.066-8.066c0.705 0.951 1.545 1.791 2.494 2.498l-8.063 8.063zM20 22.006c-5.522 0-10-4.479-10-10s4.478-10 10-10c5.521 0 10 4.478 10 10s-4.479 10-10 10zM20 5.005c0.275 0 0.5 0.224 0.5 0.5s-0.225 0.5-0.5 0.5c-3.314 0-6 2.687-6 6 0 0.276-0.224 0.5-0.5 0.5s-0.5-0.224-0.5-0.5c0-3.866 3.133-7 7-7z"></path>
</symbol>
<symbol id="icon-error" viewBox="0 0 36 32">
<path d="M2.31 1.785c-0.486 0.096-0.973 0.447-1.198 0.868-0.256 0.469-0.243-0.443-0.243 13.477 0 11.372 0.009 12.839 0.065 13.069 0.182 0.695 0.708 1.194 1.389 1.32 0.182 0.035 4.806 0.048 15.931 0.048 17.151 0 15.961 0.017 16.447-0.247 0.408-0.221 0.751-0.695 0.855-1.177 0.035-0.169 0.048-3.712 0.048-13.004 0-11.341-0.009-12.804-0.065-13.034-0.182-0.695-0.708-1.194-1.389-1.32-0.313-0.056-31.548-0.061-31.839 0zM32.955 16.152v11.767h-29.438v-23.533h29.438v11.767z"></path>
<path d="M9.070 7.768c-0.499 0.1-0.873 0.551-0.877 1.064-0.004 0.378 0.109 0.591 0.551 1.025 0.204 0.204 0.373 0.386 0.373 0.408s-0.165 0.213-0.369 0.421c-0.43 0.434-0.556 0.677-0.556 1.038 0.004 0.334 0.117 0.573 0.369 0.803 0.239 0.213 0.421 0.282 0.755 0.282 0.317 0 0.586-0.152 1.016-0.582l0.365-0.373 0.399 0.391c0.452 0.443 0.669 0.564 1.016 0.56 0.447 0 0.773-0.191 0.977-0.569 0.104-0.191 0.126-0.282 0.122-0.512-0.004-0.395-0.096-0.569-0.547-1.029l-0.391-0.404 0.378-0.391c0.447-0.465 0.564-0.69 0.564-1.064-0.004-0.447-0.265-0.842-0.664-1.007-0.23-0.1-0.656-0.087-0.881 0.022-0.104 0.052-0.36 0.269-0.573 0.482l-0.391 0.391-0.439-0.425c-0.278-0.269-0.491-0.443-0.586-0.473-0.23-0.069-0.439-0.087-0.612-0.056z"></path>
<path d="M26.916 7.789c-0.252 0.065-0.373 0.156-0.799 0.586l-0.343 0.352-0.421-0.412c-0.23-0.226-0.486-0.443-0.573-0.478-0.091-0.035-0.287-0.065-0.452-0.065-0.247 0-0.33 0.022-0.525 0.13-0.282 0.165-0.465 0.412-0.53 0.716-0.096 0.46 0.030 0.751 0.556 1.294l0.373 0.378-0.395 0.404c-0.452 0.46-0.543 0.634-0.547 1.029-0.009 0.617 0.46 1.085 1.085 1.085 0.365-0.004 0.577-0.117 1.029-0.564l0.399-0.391 0.365 0.373c0.443 0.452 0.686 0.582 1.064 0.582 0.604-0.004 1.077-0.478 1.077-1.085 0-0.36-0.13-0.604-0.556-1.038-0.204-0.208-0.369-0.395-0.369-0.412s0.169-0.208 0.382-0.421c0.434-0.447 0.538-0.643 0.538-0.99 0-0.734-0.669-1.264-1.359-1.072z"></path>
<path d="M8.393 21.445c-0.1 0.017-0.274 0.087-0.386 0.161-0.734 0.452-0.673 1.528 0.104 1.91 0.152 0.078 0.408 0.082 5.879 0.096l5.718 0.009 0.013 1.164 0.013 1.159 0.126 0.261c0.23 0.465 0.638 0.764 1.272 0.921 0.252 0.061 0.538 0.074 1.902 0.078 1.42 0 1.646-0.009 1.954-0.082 0.695-0.161 1.168-0.469 1.376-0.886 0.096-0.195 0.1-0.256 0.113-1.411l0.013-1.203h0.795c0.912 0 1.094-0.039 1.35-0.295 0.243-0.243 0.339-0.46 0.339-0.79 0.004-0.43-0.195-0.764-0.582-0.977l-0.234-0.13-9.791-0.004c-5.384-0.004-9.874 0.004-9.973 0.022z"></path>
</symbol>
</defs>
</svg>
